<svg width="20" height="19" viewBox="0 0 20 19" fill="none" xmlns="http://www.w3.org/2000/svg">
<path d="M17 9.5L16.5641 10.1103C16.8624 10.3234 17.2711 10.2896 17.5303 10.0303L17 9.5ZM19.5303 8.03033C19.8232 7.73744 19.8232 7.26256 19.5303 6.96967C19.2374 6.67678 18.7626 6.67678 18.4697 6.96967L19.5303 8.03033ZM15.1026 7.22303C14.7655 6.98228 14.2971 7.06035 14.0564 7.3974C13.8156 7.73446 13.8937 8.20288 14.2307 8.44363L15.1026 7.22303ZM16.9562 13.1462C17.129 12.7697 16.9639 12.3245 16.5875 12.1517C16.211 11.9789 15.7658 12.144 15.593 12.5205L16.9562 13.1462ZM9.75 5.5C9.75 5.08579 9.41421 4.75 9 4.75C8.58579 4.75 8.25 5.08579 8.25 5.5H9.75ZM11.1363 12.697C11.4292 12.9899 11.9041 12.9899 12.197 12.697C12.4899 12.4041 12.4899 11.9292 12.197 11.6363L11.1363 12.697ZM9 16.75C4.99594 16.75 1.75 13.5041 1.75 9.5H0.25C0.25 14.3325 4.16751 18.25 9 18.25V16.75ZM1.75 9.5C1.75 5.49594 4.99594 2.25 9 2.25V0.75C4.16751 0.75 0.25 4.66751 0.25 9.5H1.75ZM9 2.25C13.0041 2.25 16.25 5.49594 16.25 9.5H17.75C17.75 4.66751 13.8325 0.75 9 0.75V2.25ZM17.5303 10.0303L19.5303 8.03033L18.4697 6.96967L16.4697 8.96967L17.5303 10.0303ZM17.4359 8.8897L15.1026 7.22303L14.2307 8.44363L16.5641 10.1103L17.4359 8.8897ZM15.593 12.5205C14.4467 15.018 11.9248 16.75 9 16.75V18.25C12.5325 18.25 15.5745 16.1567 16.9562 13.1462L15.593 12.5205ZM9.75 8.94772V5.5H8.25V8.94772H9.75ZM8.86019 10.4209L11.1363 12.697L12.197 11.6363L9.92085 9.36019L8.86019 10.4209ZM8.25 8.94772C8.25 9.50025 8.46949 10.0302 8.86019 10.4209L9.92085 9.36019C9.81146 9.2508 9.75 9.10243 9.75 8.94772H8.25Z" fill="black"/>
</svg>
