<svg width="29" height="22" viewBox="0 0 29 22" fill="none" xmlns="http://www.w3.org/2000/svg">
<path d="M6.24152 4.3125H22.9205C24.6857 4.3125 25.9921 5.99506 25.5951 7.75742L24.1171 14.3199C23.8297 15.596 22.7207 16.5 21.4425 16.5H11.1701C9.89188 16.5 8.78285 15.596 8.49544 14.3199L6.24152 4.3125ZM6.24152 4.3125L5.95217 3.42311C5.57855 2.27465 4.5296 1.5 3.3481 1.5H1.66663M21.6666 7.5H18.6666" stroke="black" stroke-width="2" stroke-linecap="round"/>
<path d="M12.7435 20.0714C12.7435 20.8604 12.1236 21.5 11.3589 21.5C10.5942 21.5 9.9743 20.8604 9.9743 20.0714C9.9743 19.2824 10.5942 18.6429 11.3589 18.6429C12.1236 18.6429 12.7435 19.2824 12.7435 20.0714Z" fill="black"/>
<path d="M21.9743 20.0714C21.9743 20.8604 21.3544 21.5 20.5897 21.5C19.825 21.5 19.2051 20.8604 19.2051 20.0714C19.2051 19.2824 19.825 18.6429 20.5897 18.6429C21.3544 18.6429 21.9743 19.2824 21.9743 20.0714Z" fill="black"/>
<circle cx="25.5" cy="4" r="3.5" fill="#FF0909"/>
</svg>
