<svg width="19" height="19" viewBox="0 0 19 19" fill="none" xmlns="http://www.w3.org/2000/svg">
<path d="M6.0749 3.62412L5.55361 3.0849V3.0849L6.0749 3.62412ZM8.57537 1.64662L8.80668 2.36006L8.57537 1.64662ZM12.9251 3.62411L12.4038 4.16333L12.9251 3.62411ZM10.4246 1.64662L10.1933 2.36006L10.4246 1.64662ZM3.24723 17.1251L2.88714 17.783L3.24723 17.1251ZM1.84878 15.6229L1.17115 15.9443L1.84878 15.6229ZM17.1512 15.6229L17.8289 15.9443L17.1512 15.6229ZM15.7528 17.1251L16.1129 17.783L15.7528 17.1251ZM17.3994 8.72277L18.1289 8.54836L17.3994 8.72277ZM15.8051 6.40839L16.3264 5.86917L15.8051 6.40839ZM16.9651 7.67517L17.6029 7.28055L16.9651 7.67517ZM1.60059 8.72277L0.871147 8.54836L1.60059 8.72277ZM3.1949 6.40839L2.67361 5.86917L3.1949 6.40839ZM2.03493 7.67517L1.39714 7.28055H1.39714L2.03493 7.67517ZM10.6843 11.3103L10.4824 12.0326L10.6843 11.3103ZM12.0985 12.786L12.825 12.5995L12.0985 12.786ZM8.3157 11.3103L8.11374 10.588L8.3157 11.3103ZM6.90148 12.786L6.17505 12.5995L6.90148 12.786ZM16.75 10.4964V11.9999H18.25V10.4964H16.75ZM2.25 11.9999V10.4964H0.75V11.9999H2.25ZM3.71619 6.9476L6.59619 4.16333L5.55361 3.0849L2.67361 5.86917L3.71619 6.9476ZM12.4038 4.16333L15.2838 6.9476L16.3264 5.86917L13.4464 3.0849L12.4038 4.16333ZM6.59619 4.16333C7.21007 3.56986 7.63959 3.15537 7.99974 2.8582C8.35355 2.56626 8.59172 2.42975 8.80668 2.36006L8.34407 0.933179C7.87446 1.08543 7.46771 1.35248 7.04507 1.70121C6.62877 2.04472 6.15034 2.508 5.55361 3.0849L6.59619 4.16333ZM13.4464 3.0849C12.8497 2.508 12.3712 2.04472 11.9549 1.70121C11.5323 1.35248 11.1255 1.08543 10.6559 0.933179L10.1933 2.36006C10.4083 2.42975 10.6465 2.56626 11.0003 2.8582C11.3604 3.15537 11.7899 3.56986 12.4038 4.16333L13.4464 3.0849ZM8.80668 2.36006C9.25931 2.21331 9.74069 2.21331 10.1933 2.36006L10.6559 0.933179C9.9026 0.68894 9.0974 0.68894 8.34407 0.933179L8.80668 2.36006ZM6.62 16.7497C5.71063 16.7497 5.07704 16.7491 4.58382 16.7058C4.10106 16.6634 3.82166 16.5845 3.60732 16.4672L2.88714 17.783C3.35732 18.0403 3.86821 18.1487 4.45268 18.2C5.02666 18.2504 5.7372 18.2497 6.62 18.2497V16.7497ZM0.75 11.9999C0.75 12.951 0.749494 13.7062 0.795758 14.3145C0.842577 14.93 0.940563 15.4582 1.17115 15.9443L2.52641 15.3015C2.40822 15.0523 2.33181 14.7315 2.29144 14.2007C2.25051 13.6626 2.25 12.974 2.25 11.9999H0.75ZM3.60732 16.4672C3.15007 16.2169 2.76856 15.812 2.52641 15.3015L1.17115 15.9443C1.54259 16.7274 2.14015 17.3741 2.88714 17.783L3.60732 16.4672ZM16.75 11.9999C16.75 12.974 16.7495 13.6626 16.7086 14.2007C16.6682 14.7315 16.5918 15.0523 16.4736 15.3015L17.8289 15.9443C18.0594 15.4582 18.1574 14.93 18.2042 14.3145C18.2505 13.7062 18.25 12.951 18.25 11.9999H16.75ZM12.38 18.2497C13.2628 18.2497 13.9733 18.2504 14.5473 18.2C15.1318 18.1487 15.6427 18.0403 16.1129 17.783L15.3927 16.4672C15.1783 16.5845 14.8989 16.6634 14.4162 16.7058C13.923 16.7491 13.2894 16.7497 12.38 16.7497V18.2497ZM16.4736 15.3015C16.2314 15.812 15.8499 16.2169 15.3927 16.4672L16.1129 17.783C16.8599 17.3741 17.4574 16.7274 17.8289 15.9443L16.4736 15.3015ZM18.25 10.4964C18.25 9.63051 18.2548 9.07518 18.1289 8.54836L16.67 8.89717C16.7452 9.21176 16.75 9.55835 16.75 10.4964H18.25ZM15.2838 6.9476C15.9344 7.5766 16.164 7.80595 16.3273 8.06979L17.6029 7.28055C17.3185 6.82089 16.924 6.44688 16.3264 5.86917L15.2838 6.9476ZM18.1289 8.54836C18.0214 8.09901 17.844 7.67036 17.6029 7.28055L16.3273 8.06979C16.4828 8.3212 16.5991 8.6008 16.67 8.89717L18.1289 8.54836ZM2.25 10.4964C2.25 9.55835 2.25481 9.21176 2.33003 8.89717L0.871147 8.54836C0.745188 9.07518 0.75 9.63051 0.75 10.4964H2.25ZM2.67361 5.86917C2.07604 6.44688 1.68154 6.82089 1.39714 7.28055L2.67272 8.06979C2.83596 7.80595 3.06557 7.5766 3.71619 6.9476L2.67361 5.86917ZM2.33003 8.89717C2.40089 8.6008 2.51717 8.3212 2.67272 8.06979L1.39714 7.28055C1.15595 7.67036 0.978584 8.09901 0.871147 8.54836L2.33003 8.89717ZM11.4167 14.0218V17.2867H12.9167V14.0218H11.4167ZM7.58333 17.2867V14.0218H6.08333V17.2867H7.58333ZM9.5 11.9892C10.1702 11.9892 10.352 11.9962 10.4824 12.0326L10.8863 10.588C10.5079 10.4823 10.0698 10.4892 9.5 10.4892V11.9892ZM12.9167 14.0218C12.9167 13.4213 12.9226 12.9798 12.825 12.5995L11.3721 12.9726C11.4107 13.123 11.4167 13.3284 11.4167 14.0218H12.9167ZM10.4824 12.0326C10.9029 12.1502 11.2507 12.4998 11.3721 12.9726L12.825 12.5995C12.5765 11.6319 11.8461 10.8564 10.8863 10.588L10.4824 12.0326ZM9.5 10.4892C8.9302 10.4892 8.49209 10.4823 8.11374 10.588L8.51765 12.0326C8.64796 11.9962 8.82983 11.9892 9.5 11.9892V10.4892ZM7.58333 14.0218C7.58333 13.3284 7.58928 13.123 7.62791 12.9726L6.17505 12.5995C6.07738 12.9798 6.08333 13.4213 6.08333 14.0218H7.58333ZM8.11374 10.588C7.1539 10.8564 6.42352 11.6319 6.17505 12.5995L7.62791 12.9726C7.74931 12.4998 8.09712 12.1502 8.51765 12.0326L8.11374 10.588ZM6.08333 17.2867C6.08333 16.9899 6.32414 16.7494 6.62094 16.7497L6.61906 18.2497C7.15142 18.2504 7.58333 17.819 7.58333 17.2867H6.08333ZM11.4167 17.2867C11.4167 17.819 11.8486 18.2504 12.3809 18.2497L12.3791 16.7497C12.6759 16.7494 12.9167 16.9899 12.9167 17.2867H11.4167Z" fill="black"/>
</svg>
