<svg width="13" height="16" viewBox="0 0 13 16" fill="none" xmlns="http://www.w3.org/2000/svg">
<path d="M5.53413 2.45237L5.32244 2.11997C5.17962 1.8954 5.10831 1.78317 5.03519 1.6957C4.4961 1.05088 3.53604 0.823705 2.7046 1.14392C2.59183 1.18735 2.46662 1.25247 2.21598 1.38385C0.855422 2.1695 0.957832 4.85086 1.04536 5.24818C1.04536 5.24818 1.06308 6.56179 3.03645 9.66489C5.00981 12.768 6.46543 13.7716 6.46543 13.7716C7.29355 14.3908 9.30714 15.4602 10.7369 14.7833C10.9875 14.6519 11.1127 14.5861 11.2105 14.5192C11.9317 14.0256 12.1948 13.1568 11.8492 12.4105C11.8024 12.3093 11.7311 12.1969 11.5883 11.9724L11.3769 11.64C11.147 11.2784 10.9947 11.0393 10.8547 10.867C10.7353 10.7201 10.5627 10.6187 10.38 10.5376C9.59061 10.1869 8.03187 10.5188 7.21134 10.2263C7.12641 10.1961 7.04344 10.1607 6.9627 10.1206C6.88018 10.0796 6.80118 10.0342 6.73004 9.97856C6.50863 9.80542 5.98571 9.35108 5.50384 8.59335C4.88007 7.61248 4.83004 6.92001 4.82883 6.90172V6.90052C4.81587 6.68548 4.83845 6.47237 4.89306 6.26653C5.09468 5.50666 6.12359 4.45663 6.11095 3.68226C6.10908 3.56765 6.09735 3.45282 6.0537 3.34623C5.9656 3.13111 5.80313 2.87538 5.53413 2.45237Z" stroke="white" stroke-width="1.5"/>
</svg>
