<svg width="20" height="19" viewBox="0 0 20 19" fill="none" xmlns="http://www.w3.org/2000/svg">
<path d="M2.90425 16.9955L3.26765 16.3395L2.90425 16.9955ZM1.48964 10.4297L2.22726 10.5654L1.48964 10.4297ZM1.17873 15.0226L1.87998 14.7566L1.17873 15.0226ZM18.5104 10.4297L19.248 10.294L18.5104 10.4297ZM18.8213 15.0226L18.12 14.7566L18.8213 15.0226ZM17.0958 16.9955L16.7323 16.3395L17.0958 16.9955ZM15.1712 1.82541L15.4658 1.13568L15.1712 1.82541ZM17.7832 6.47673L17.0456 6.61242V6.61242L17.7832 6.47673ZM16.8285 3.1592L17.4419 2.72776L16.8285 3.1592ZM4.82876 1.82541L4.53419 1.13568L4.82876 1.82541ZM2.21681 6.47673L1.47919 6.34104L2.21681 6.47673ZM3.17154 3.1592L2.55806 2.72776L3.17154 3.1592ZM14.0831 5.58189C14.2905 5.22333 14.1679 4.76454 13.8094 4.55714C13.4508 4.34974 12.992 4.47228 12.7846 4.83083L14.0831 5.58189ZM7.21537 4.83083C7.00797 4.47228 6.54918 4.34974 6.19063 4.55714C5.83207 4.76454 5.70954 5.22333 5.91694 5.58189L7.21537 4.83083ZM8.4003 2.25H11.5997V0.75H8.4003V2.25ZM17.0456 6.61242L17.7727 10.5654L19.248 10.294L18.5208 6.34104L17.0456 6.61242ZM12.3269 16.75H7.67313V18.25H12.3269V16.75ZM2.22726 10.5654L2.95443 6.61242L1.47919 6.34104L0.752018 10.294L2.22726 10.5654ZM7.67313 16.75C6.37421 16.75 5.44638 16.7494 4.72793 16.6895C4.0153 16.6302 3.58825 16.5171 3.26765 16.3395L2.54084 17.6516C3.13095 17.9785 3.80229 18.1176 4.60339 18.1844C5.39868 18.2506 6.39993 18.25 7.67313 18.25V16.75ZM0.752018 10.294C0.531049 11.4952 0.355508 12.4455 0.284874 13.2131C0.213547 13.9883 0.239275 14.6605 0.477477 15.2885L1.87998 14.7566C1.7586 14.4366 1.71629 14.0273 1.77856 13.3505C1.84153 12.6662 2.00124 11.7941 2.22726 10.5654L0.752018 10.294ZM3.26765 16.3395C2.61925 15.9803 2.13074 15.4177 1.87998 14.7566L0.477477 15.2885C0.857721 16.291 1.59109 17.1255 2.54084 17.6516L3.26765 16.3395ZM17.7727 10.5654C17.9988 11.7941 18.1585 12.6662 18.2214 13.3505C18.2837 14.0273 18.2414 14.4366 18.12 14.7566L19.5225 15.2885C19.7607 14.6605 19.7865 13.9883 19.7151 13.2131C19.6445 12.4455 19.469 11.4952 19.248 10.294L17.7727 10.5654ZM12.3269 18.25C13.6001 18.25 14.6013 18.2506 15.3966 18.1844C16.1977 18.1176 16.869 17.9785 17.4592 17.6516L16.7323 16.3395C16.4117 16.5171 15.9847 16.6302 15.2721 16.6895C14.5536 16.7494 13.6258 16.75 12.3269 16.75V18.25ZM18.12 14.7566C17.8693 15.4177 17.3807 15.9803 16.7323 16.3395L17.4592 17.6516C18.4089 17.1255 19.1423 16.291 19.5225 15.2885L18.12 14.7566ZM11.5997 2.25C12.547 2.25 13.2179 2.25045 13.7481 2.28873C14.2697 2.32638 14.6024 2.39802 14.8767 2.51515L15.4658 1.13568C14.9781 0.927392 14.4616 0.836325 13.8561 0.792623C13.2594 0.749547 12.5255 0.75 11.5997 0.75V2.25ZM18.5208 6.34104C18.3602 5.46772 18.2324 4.77053 18.0835 4.2104C17.9319 3.64024 17.7457 3.15964 17.4419 2.72776L16.215 3.59065C16.3777 3.82207 16.5061 4.11549 16.6339 4.59589C16.7643 5.08633 16.8807 5.71625 17.0456 6.61242L18.5208 6.34104ZM14.8767 2.51515C15.4231 2.74851 15.8858 3.12256 16.215 3.59065L17.4419 2.72776C16.9487 2.02634 16.2629 1.47607 15.4658 1.13568L14.8767 2.51515ZM8.4003 0.75C7.47453 0.75 6.74062 0.749547 6.14388 0.792623C5.53845 0.836325 5.02191 0.927392 4.53419 1.13568L5.12332 2.51515C5.39758 2.39802 5.73029 2.32638 6.25187 2.28873C6.78215 2.25045 7.45302 2.25 8.4003 2.25V0.75ZM2.95443 6.61242C3.11929 5.71625 3.2357 5.08633 3.36612 4.59589C3.49388 4.11549 3.62227 3.82207 3.78502 3.59065L2.55806 2.72776C2.25434 3.15964 2.06813 3.64024 1.9165 4.2104C1.76755 4.77053 1.63984 5.46772 1.47919 6.34104L2.95443 6.61242ZM4.53419 1.13568C3.73713 1.47607 3.05135 2.02634 2.55806 2.72776L3.78502 3.59065C4.11422 3.12256 4.57687 2.74851 5.12332 2.51515L4.53419 1.13568ZM12.7846 4.83083C12.2491 5.75662 11.2096 6.39706 10 6.39706V7.89706C11.7455 7.89706 13.2796 6.97083 14.0831 5.58189L12.7846 4.83083ZM10 6.39706C8.79039 6.39706 7.75088 5.75662 7.21537 4.83083L5.91694 5.58189C6.72036 6.97083 8.25452 7.89706 10 7.89706V6.39706Z" fill="black"/>
</svg>
