<svg width="20" height="24" viewBox="0 0 20 24" fill="none" xmlns="http://www.w3.org/2000/svg">
<g opacity="0.8">
<path d="M19 10.4641C19 14.8983 12.5226 21.0266 10.5581 22.7832C10.2349 23.0723 9.76511 23.0723 9.44189 22.7832C7.47739 21.0266 1 14.8983 1 10.4641C1 5.2372 5.02944 1 10 1C14.9706 1 19 5.2372 19 10.4641Z" stroke="black" stroke-width="2"/>
<path d="M13 8.95413C13 10.7113 11.6569 12.1358 10 12.1358C8.34315 12.1358 7 10.7113 7 8.95413C7 7.19695 8.34315 5.77248 10 5.77248C11.6569 5.77248 13 7.19695 13 8.95413Z" stroke="black" stroke-width="2"/>
</g>
</svg>
